<svg width="32" height="32" viewBox="0 0 32 32" fill="none" xmlns="http://www.w3.org/2000/svg">
<rect width="32" height="32" fill="#0D66D0"/>
<line x1="2" y1="3" x2="30" y2="3" stroke="white" stroke-width="2"/>
<line x1="4" y1="29" x2="12" y2="29" stroke="white" stroke-width="2"/>
<line x1="20" y1="29" x2="28" y2="29" stroke="white" stroke-width="2"/>
<line x1="3" y1="30" x2="3" y2="4" stroke="white" stroke-width="2"/>
<line x1="29" y1="30" x2="29" y2="4" stroke="white" stroke-width="2"/>
<path d="M8.76172 16V7.46875H11.3867C12.1367 7.46875 12.8066 7.63867 13.3965 7.97852C13.9902 8.31445 14.4531 8.79492 14.7852 9.41992C15.1172 10.041 15.2832 10.748 15.2832 11.541V11.9336C15.2832 12.7266 15.1191 13.4316 14.791 14.0488C14.4668 14.666 14.0078 15.1445 13.4141 15.4844C12.8203 15.8242 12.1504 15.9961 11.4043 16H8.76172ZM10.5195 8.89258V14.5879H11.3691C12.0566 14.5879 12.582 14.3633 12.9453 13.9141C13.3086 13.4648 13.4941 12.8223 13.502 11.9863V11.5352C13.502 10.668 13.3223 10.0117 12.9629 9.56641C12.6035 9.11719 12.0781 8.89258 11.3867 8.89258H10.5195ZM19.4902 10.4102L21.0898 7.46875H23.1113L20.627 11.6992L23.1758 16H21.1309L19.4902 13.0117L17.8496 16H15.8047L18.3535 11.6992L15.8691 7.46875H17.8906L19.4902 10.4102Z" fill="white"/>
<path d="M7.27832 22.3887C7.27832 21.9023 7.39355 21.5117 7.62402 21.2168C7.85449 20.9199 8.15625 20.7715 8.5293 20.7715C8.90039 20.7715 9.19434 20.8984 9.41113 21.1523V19.5H9.95312V24H9.45508L9.42871 23.6602C9.21191 23.9258 8.91016 24.0586 8.52344 24.0586C8.15625 24.0586 7.85645 23.9082 7.62402 23.6074C7.39355 23.3066 7.27832 22.9141 7.27832 22.4297V22.3887ZM7.82031 22.4502C7.82031 22.8096 7.89453 23.0908 8.04297 23.2939C8.19141 23.4971 8.39648 23.5986 8.6582 23.5986C9.00195 23.5986 9.25293 23.4443 9.41113 23.1357V21.6797C9.24902 21.3809 9 21.2314 8.66406 21.2314C8.39844 21.2314 8.19141 21.334 8.04297 21.5391C7.89453 21.7441 7.82031 22.0479 7.82031 22.4502ZM12.1123 24.0586C11.6826 24.0586 11.333 23.918 11.0635 23.6367C10.7939 23.3535 10.6592 22.9756 10.6592 22.5029V22.4033C10.6592 22.0889 10.7188 21.8086 10.8379 21.5625C10.959 21.3145 11.127 21.1211 11.3418 20.9824C11.5586 20.8418 11.793 20.7715 12.0449 20.7715C12.457 20.7715 12.7773 20.9072 13.0059 21.1787C13.2344 21.4502 13.3486 21.8389 13.3486 22.3447V22.5703H11.2012C11.209 22.8828 11.2998 23.1357 11.4736 23.3291C11.6494 23.5205 11.8721 23.6162 12.1416 23.6162C12.333 23.6162 12.4951 23.5771 12.6279 23.499C12.7607 23.4209 12.877 23.3174 12.9766 23.1885L13.3076 23.4463C13.042 23.8545 12.6436 24.0586 12.1123 24.0586ZM12.0449 21.2168C11.8262 21.2168 11.6426 21.2969 11.4941 21.457C11.3457 21.6152 11.2539 21.8379 11.2188 22.125H12.8066V22.084C12.791 21.8086 12.7168 21.5957 12.584 21.4453C12.4512 21.293 12.2715 21.2168 12.0449 21.2168ZM15.8242 23.1592C15.8242 23.0127 15.7686 22.8994 15.6572 22.8193C15.5479 22.7373 15.3555 22.667 15.0801 22.6084C14.8066 22.5498 14.5889 22.4795 14.4268 22.3975C14.2666 22.3154 14.1475 22.2178 14.0693 22.1045C13.9932 21.9912 13.9551 21.8564 13.9551 21.7002C13.9551 21.4404 14.0645 21.2207 14.2832 21.041C14.5039 20.8613 14.7852 20.7715 15.127 20.7715C15.4863 20.7715 15.7773 20.8643 16 21.0498C16.2246 21.2354 16.3369 21.4727 16.3369 21.7617H15.792C15.792 21.6133 15.7285 21.4854 15.6016 21.3779C15.4766 21.2705 15.3184 21.2168 15.127 21.2168C14.9297 21.2168 14.7754 21.2598 14.6641 21.3457C14.5527 21.4316 14.4971 21.5439 14.4971 21.6826C14.4971 21.8135 14.5488 21.9121 14.6523 21.9785C14.7559 22.0449 14.9424 22.1084 15.2119 22.1689C15.4834 22.2295 15.7031 22.3018 15.8711 22.3857C16.0391 22.4697 16.1631 22.5713 16.2432 22.6904C16.3252 22.8076 16.3662 22.9512 16.3662 23.1211C16.3662 23.4043 16.2529 23.6318 16.0264 23.8037C15.7998 23.9736 15.5059 24.0586 15.1445 24.0586C14.8906 24.0586 14.666 24.0137 14.4707 23.9238C14.2754 23.834 14.1221 23.709 14.0107 23.5488C13.9014 23.3867 13.8467 23.2119 13.8467 23.0244H14.3887C14.3984 23.2061 14.4707 23.3506 14.6055 23.458C14.7422 23.5635 14.9219 23.6162 15.1445 23.6162C15.3496 23.6162 15.5137 23.5752 15.6367 23.4932C15.7617 23.4092 15.8242 23.2979 15.8242 23.1592ZM17.6611 24H17.1191V20.8301H17.6611V24ZM17.0752 19.9893C17.0752 19.9014 17.1016 19.8271 17.1543 19.7666C17.209 19.7061 17.2891 19.6758 17.3945 19.6758C17.5 19.6758 17.5801 19.7061 17.6348 19.7666C17.6895 19.8271 17.7168 19.9014 17.7168 19.9893C17.7168 20.0771 17.6895 20.1504 17.6348 20.209C17.5801 20.2676 17.5 20.2969 17.3945 20.2969C17.2891 20.2969 17.209 20.2676 17.1543 20.209C17.1016 20.1504 17.0752 20.0771 17.0752 19.9893ZM18.4023 22.3887C18.4023 21.8945 18.5166 21.502 18.7451 21.2109C18.9736 20.918 19.2764 20.7715 19.6533 20.7715C20.04 20.7715 20.3418 20.9082 20.5586 21.1816L20.585 20.8301H21.0801V23.9238C21.0801 24.334 20.958 24.6572 20.7139 24.8936C20.4717 25.1299 20.1455 25.248 19.7354 25.248C19.5068 25.248 19.2832 25.1992 19.0645 25.1016C18.8457 25.0039 18.6787 24.8701 18.5635 24.7002L18.8447 24.375C19.0771 24.6621 19.3613 24.8057 19.6973 24.8057C19.9609 24.8057 20.166 24.7314 20.3125 24.583C20.4609 24.4346 20.5352 24.2256 20.5352 23.9561V23.6836C20.3184 23.9336 20.0225 24.0586 19.6475 24.0586C19.2764 24.0586 18.9756 23.9092 18.7451 23.6104C18.5166 23.3115 18.4023 22.9043 18.4023 22.3887ZM18.9473 22.4502C18.9473 22.8076 19.0205 23.0889 19.167 23.2939C19.3135 23.4971 19.5186 23.5986 19.7822 23.5986C20.124 23.5986 20.375 23.4434 20.5352 23.1328V21.6855C20.3691 21.3828 20.1201 21.2314 19.7881 21.2314C19.5244 21.2314 19.3184 21.334 19.1699 21.5391C19.0215 21.7441 18.9473 22.0479 18.9473 22.4502ZM22.4131 20.8301L22.4307 21.2285C22.6729 20.9238 22.9893 20.7715 23.3799 20.7715C24.0498 20.7715 24.3877 21.1494 24.3936 21.9053V24H23.8516V21.9023C23.8496 21.6738 23.7969 21.5049 23.6934 21.3955C23.5918 21.2861 23.4326 21.2314 23.2158 21.2314C23.04 21.2314 22.8857 21.2783 22.7529 21.3721C22.6201 21.4658 22.5166 21.5889 22.4424 21.7412V24H21.9004V20.8301H22.4131Z" fill="white"/>
</svg>
